inDegrees=no
num_controls=7
num_derivatives=13
num_iterations=50
num_multipliers=7
num_parameters=0
num_slacks=7
num_states=26
objective=0.429730
objective_accelerations=0.053610
objective_balance=0.007002
objective_effort=0.033369
objective_height=0.334645
objective_ligament=0.001102
solver_duration=644.659440
status=Solve_Succeeded
success=true
DataType=double
version=3
OpenSimVersion=4.5
endheader
time	/jointset/ground_pelvis/pelvis_tilt/value	/jointset/ground_pelvis/pelvis_tx/value	/jointset/ground_pelvis/pelvis_ty/value	/jointset/hip_l/hip_flexion_l/value	/jointset/hip_l/hip_adduction_l/value	/jointset/hip_l/hip_rotation_l/value	/jointset/back/lumbar_extension/value	/jointset/patellofemoral_l/patellar_flexion_l/value	/jointset/knee_l/knee_flexion_l/value	/jointset/knee_l/knee_adduction_l/value	/jointset/knee_l/knee_rotation_l/value	/jointset/ankle_l/ankle_angle_l/value	/jointset/subtalar_l/subtalar_angle_l/value	/jointset/ground_pelvis/pelvis_tilt/speed	/jointset/ground_pelvis/pelvis_tx/speed	/jointset/ground_pelvis/pelvis_ty/speed	/jointset/hip_l/hip_flexion_l/speed	/jointset/hip_l/hip_adduction_l/speed	/jointset/hip_l/hip_rotation_l/speed	/jointset/back/lumbar_extension/speed	/jointset/patellofemoral_l/patellar_flexion_l/speed	/jointset/knee_l/knee_flexion_l/speed	/jointset/knee_l/knee_adduction_l/speed	/jointset/knee_l/knee_rotation_l/speed	/jointset/ankle_l/ankle_angle_l/speed	/jointset/subtalar_l/subtalar_angle_l/speed	/forceset/tau_hip_flexion_l	/forceset/tau_hip_adduction_l	/forceset/tau_hip_rotation_l	/forceset/tau_knee_flexion_l	/forceset/tau_ankle_angle_l	/forceset/tau_subtalar_angle_l	/forceset/tau_lumbar_extension	lambda_cid13_p0	lambda_cid13_p1	lambda_cid13_p2	lambda_cid13_p3	lambda_cid13_p4	lambda_cid13_p5	lambda_cid14_p0	/jointset/ground_pelvis/pelvis_tilt/accel	/jointset/ground_pelvis/pelvis_tx/accel	/jointset/ground_pelvis/pelvis_ty/accel	/jointset/hip_l/hip_flexion_l/accel	/jointset/hip_l/hip_adduction_l/accel	/jointset/hip_l/hip_rotation_l/accel	/jointset/back/lumbar_extension/accel	/jointset/patellofemoral_l/patellar_flexion_l/accel	/jointset/knee_l/knee_flexion_l/accel	/jointset/knee_l/knee_adduction_l/accel	/jointset/knee_l/knee_rotation_l/accel	/jointset/ankle_l/ankle_angle_l/accel	/jointset/subtalar_l/subtalar_angle_l/accel	gamma_cid13_p0	gamma_cid13_p1	gamma_cid13_p2	gamma_cid13_p3	gamma_cid13_p4	gamma_cid13_p5	gamma_cid14_p0
1	-0.4643373960792658	-0.06081400716194808	0.5623006978361647	1.87653878293159	-0.2631013043296071	0.2532973080134183	-0.4362905116455486	1.50311692205615	1.503116922055972	-0.1730258193465599	0.1745014163030313	0.3115231408185219	0.06091160439707234	-0.004824247521182786	0.001434758898159944	-0.00501941155642975	0.01611353882465192	0.001876769085898148	0.005272059021540004	0.0005026504237103006	0.01593214734745558	0.01593214734745345	0.0009931406678191021	0.000152622055759475	0.005549136905872826	0.004037233498252855	-0.3428517828468932	0.03535206847555118	-0.008163277010522146	-0.3870714346026	0.07482843410451787	-0.01739104031138708	0.3033426607816018	-24.51351057699667	17.04434043175625	-9.058573967997873	15.38770104261309	-738.5587432473802	-25.4587518693098	-0.03795046372635943	0.9746601866990653	-0.02894274055155457	1.990991394981747	-6.120919109443987	-0.7388892126582559	-2.229144558812234	-0.04648259447213492	-5.878765555431289	-5.878765555431326	-0.1290226905684962	0.02246027038421253	-1.02829927477488	-1.24094882478782	3.459596078769696e-10	6.812269956595344e-10	-1.783082684590391e-08	-2.628263928402997e-09	2.84753235744655e-09	-1.653304990504803e-08	3.236997181285327e-09
1.01	-0.4643372463270468	-0.0608011274288504	0.5623499911006035	1.876394313341716	-0.2631186899911159	0.2532362713637668	-0.4362873957788928	1.502982498362627	1.502982498362446	-0.1730189779763908	0.174503111822404	0.3115274421636164	0.06089110750785023	0.004859444168204483	0.001141611693740668	0.01487878194522254	-0.0450136824968208	-0.005351540134352298	-0.01747776445179498	0.0001163484873403591	-0.04282383891417624	-0.04282383891417671	0.0003737967070538335	0.0001854781342106033	-0.00469584145530293	-0.008134531429000745	-0.3428501566563091	0.03541574347217351	-0.008188732357151854	-0.3870093710554802	0.07477548961132996	-0.01737747354225514	0.303346743474327	-24.52708006827728	17.03911871017928	-9.055793222573081	15.38458359992917	-738.528783367664	-25.45619994045472	-0.03796325969252561	0.9660110830191212	-0.02943552267942069	1.989339026765845	-6.109557261819792	-0.7144538582779081	-2.297663089926095	-0.03533015517612157	-5.875056553627141	-5.875056553626889	-0.02859430644156324	-0.006462774063662453	-1.023642074644914	-1.204983869193049	-1.255461182075054e-09	1.813283963324671e-09	4.298394604701222e-08	7.852350932060487e-09	-9.506183839087591e-09	4.450197614221844e-08	-7.576617104907923e-09
1.02	-0.4642401021733388	-0.06079116613025586	0.5625982874398607	1.875638384814968	-0.2632082891611404	0.2529477841097199	-0.4362882681640757	1.502260306528068	1.502260306527872	-0.1730183708573564	0.1745051036924709	0.3114290847335277	0.06074895426085569	0.01457463277602453	0.0008510719975342143	0.03478120340728092	-0.1061782485511304	-0.01256593261738708	-0.04021806185841362	-0.0002949999272914663	-0.1016214808597281	-0.1016214808597246	-0.0002537095581504967	0.0002118921870947958	-0.01498261813071802	-0.02029403805621301	-0.3428485304657073	0.03547941846880588	-0.00821418770365261	-0.3869473075083582	0.07472254511814473	-0.01736390677310912	0.303350826167072	-24.54585004565576	17.03412967042284	-9.052275388853813	15.42379741868236	-738.5865995881225	-25.3967426071303	-0.0379700070692283	0.9809595703855301	-0.02842123890891638	1.991836987062983	-6.128388056011392	-0.7361058652151197	-2.22723934546896	-0.05149189012458134	-5.887096692215283	-5.887096692214842	-0.1306551514563004	0.02117186527081609	-1.036658937622589	-1.238497164779501	-1.862560215541962e-09	3.144542764243909e-09	1.042250757824875e-07	1.632725022691448e-08	-2.141410883876562e-08	1.040433835806205e-07	-1.830074143755453e-08
1.03	-0.4640456181891948	-0.06078404513616995	0.5630455641352877	1.874270729995367	-0.2633698559391303	0.2524320368175734	-0.4362932117986647	1.500950030711361	1.500950030711279	-0.1730240373506982	0.1745072799616044	0.3112276087363555	0.06048543032123574	0.02433050254562081	0.0005787117824271579	0.05466846102601562	-0.1673486986938352	-0.01973458007206873	-0.06292143624363417	-0.0006812722468070741	-0.1604309542686256	-0.1604309542686208	-0.0008758576055268542	0.0002180631065133196	-0.02532383325630681	-0.03239267470574715	-0.3427586122820105	0.0355824896624033	-0.008308904176733854	-0.3866394745263085	0.07471712454566028	-0.017263735603184	0.3033375225555069	-24.5254931142033	16.97073746963391	-9.023523498305133	15.35945960426205	-738.4224484462231	-25.37930106411245	-0.03800341688623425	0.9741532915934841	-0.02580066059559826	1.98631221586512	-6.110770031067968	-0.7053421943295575	-2.290413356606845	-0.03032669199097048	-5.877457563378568	-5.877457563378704	-0.02744827473593323	-0.01049505118694138	-1.034536128979885	-1.192856530218834	-2.459513108636567e-09	4.477834236931047e-09	1.654705560979888e-07	2.47816830364051e-08	-3.331748494867982e-08	1.635695500128097e-07	-2.902395260740984e-08
